# xmcd
#
# Track frame offsets: 
#        150
#        15647
#        32217
#        48837
#        63610
#        73335
#        87150
#        98497
#        113232
#        128565
#        140692
#        149832
#        162230
#        175385
#        190317
#        201432
#        217892
#        236672
#
# Disc length: 3356 seconds
#
# Revision: 0
# Processed by: cddbd v1.5.2PL0 Copyright (c) Steve Scherf et al.
# Submitted via: ExactAudioCopyFreeDBPlugin 1.0
#
DISCID=100d1a12
DTITLE=鄧麗君、尤雅 - 鄧麗君、尤雅 - 1989 國語名曲18首
DYEAR=1989
DGENRE=A Cappella
TTITLE0=鄧麗君 - 阿里山姑娘
TTITLE1=鄧麗君 - 淚的小雨
TTITLE2=鄧麗君 - 幾時再回頭
TTITLE3=鄧麗君 - 沒良心的人
TTITLE4=鄧麗君 - 因為我愛你
TTITLE5=鄧麗君 - 尋夢園
TTITLE6=鄧麗君 - 晶晶
TTITLE7=鄧麗君 - 昨夜夢醒時
TTITLE8=鄧麗君 - 忘不了初戀的情人
TTITLE9=尤雅 - 為什麼春天要遲到
TTITLE10=尤雅 - 今夜台北沒有你
TTITLE11=尤雅 - 溫情滿人間
TTITLE12=尤雅 - 我找到自己
TTITLE13=尤雅 - 我沒有騙你
TTITLE14=尤雅 - 有我就有你
TTITLE15=尤雅 - 人兒不能留
TTITLE16=尤雅 - 風從那裏來
TTITLE17=尤雅 - 往事只能回味
EXTD=
EXTT0=
EXTT1=
EXTT2=
EXTT3=
EXTT4=
EXTT5=
EXTT6=
EXTT7=
EXTT8=
EXTT9=
EXTT10=
EXTT11=
EXTT12=
EXTT13=
EXTT14=
EXTT15=
EXTT16=
EXTT17=
PLAYORDER=
